<svg width="24" height="24" viewBox="0 0 24 24" fill="none" xmlns="http://www.w3.org/2000/svg">
<path d="M16.5 3.82501C19.0277 3.82501 21 5.7973 21 8.32501C21 9.88654 20.3066 11.3817 18.8818 13.1248C17.4459 14.8815 15.3736 16.7653 12.7793 19.1229L12.002 19.824L11.2236 19.1151L11.2217 19.1141L9.375 17.4324C7.62989 15.828 6.1952 14.4396 5.11816 13.1229C3.69361 11.3812 3 9.88653 3 8.32501C3 5.7973 4.97228 3.82501 7.5 3.82501C8.93712 3.82501 10.3319 4.49901 11.2383 5.56329L12 6.45782L12.7617 5.56329C13.6681 4.49901 15.0629 3.82501 16.5 3.82501Z" fill="#2A3626"/>
<path d="M16.5 3.82501C19.0277 3.82501 21 5.7973 21 8.32501C21 9.88654 20.3066 11.3817 18.8818 13.1248C17.4459 14.8815 15.3736 16.7653 12.7793 19.1229L12.002 19.824L11.2236 19.1151L11.2217 19.1141L9.375 17.4324C7.62989 15.828 6.1952 14.4396 5.11816 13.1229C3.69361 11.3812 3 9.88653 3 8.32501C3 5.7973 4.97228 3.82501 7.5 3.82501C8.93712 3.82501 10.3319 4.49901 11.2383 5.56329L12 6.45782L12.7617 5.56329C13.6681 4.49901 15.0629 3.82501 16.5 3.82501Z" fill="black" fill-opacity="0.2"/>
<path d="M16.5 3.82501C19.0277 3.82501 21 5.7973 21 8.32501C21 9.88654 20.3066 11.3817 18.8818 13.1248C17.4459 14.8815 15.3736 16.7653 12.7793 19.1229L12.002 19.824L11.2236 19.1151L11.2217 19.1141L9.375 17.4324C7.62989 15.828 6.1952 14.4396 5.11816 13.1229C3.69361 11.3812 3 9.88653 3 8.32501C3 5.7973 4.97228 3.82501 7.5 3.82501C8.93712 3.82501 10.3319 4.49901 11.2383 5.56329L12 6.45782L12.7617 5.56329C13.6681 4.49901 15.0629 3.82501 16.5 3.82501Z" stroke="white" stroke-width="2"/>
</svg>
